<?xml version="1.0" encoding="UTF-8"?> <svg xmlns="http://www.w3.org/2000/svg" width="391" height="163" viewBox="0 0 391 163" fill="none"> <path d="M70.9676 44.5524C66.8501 42.7505 57.9958 43.6036 54.347 46.9273C45.2812 55.1853 42.7934 66.0895 44.1367 82.1464C44.8144 90.2465 60.5594 106.512 65.7707 95.0538C77.4107 79.3333 71.0025 61.129 71.0025 42.0523M72.0489 46.0525C72.0489 57.6499 76.8283 88.7416 80.4198 99.5539M194.439 44.5524C190.321 42.7505 181.467 43.6036 177.818 46.9273C168.753 55.1853 166.265 66.0895 167.608 82.1464C168.286 90.2465 184.031 106.512 189.242 95.0538C200.882 79.3333 194.474 61.129 194.474 42.0523M195.52 46.0525C195.52 57.6499 200.3 88.7416 203.891 99.5539M379.646 44.5524C375.528 42.7505 366.674 43.6036 363.025 46.9273C353.959 55.1853 351.472 66.0895 352.815 82.1464C353.493 90.2465 369.238 106.512 374.449 95.0538C386.089 79.3333 379.681 61.129 379.681 42.0523M380.727 46.0525C380.727 57.6499 385.507 88.7416 389.098 99.5539M2.87411 41.0523C2.87411 44.0962 2.86552 49.5213 2.85313 56.4444M2.85313 56.4444C2.84587 60.4977 2.8373 65.0644 2.82839 69.9675M2.85313 56.4444C1.95346 60.7529 2.63684 65.9699 2.82839 69.9675M2.85313 56.4444C3.3071 54.2704 4.16415 52.3277 5.69087 50.8897C8.7001 48.0554 14.3999 46.0204 18.6845 45.5524C33.0464 46.9657 35.3595 62.8545 32.8105 75.5532C30.0442 89.3342 11.6416 104.596 4.60269 97.8686M2.82839 69.9675C2.77041 101.855 2.69763 147.967 2.87337 159.555C3.01297 168.761 2.87439 80.8659 2.87439 71.6589C2.87439 71.1266 2.8568 70.5605 2.82839 69.9675ZM131.12 41.0523C131.12 44.0962 131.112 49.5213 131.099 56.4444M131.099 56.4444C131.092 60.4977 131.083 65.0644 131.074 69.9675M131.099 56.4444C130.199 60.7529 130.883 65.9699 131.074 69.9675M131.099 56.4444C131.553 54.2704 132.41 52.3277 133.937 50.8897C136.946 48.0554 142.646 46.0204 146.931 45.5524C161.292 46.9657 163.605 62.8545 161.056 75.5532C158.29 89.3342 139.888 104.596 132.849 97.8686M131.074 69.9675C131.016 101.855 130.944 147.967 131.119 159.555C131.259 168.761 131.12 80.8659 131.12 71.6589C131.12 71.1266 131.103 70.5605 131.074 69.9675ZM94.3049 52.5051C94.3049 44.4257 100.56 43.2583 103.054 42.5524C109.717 40.6665 109.911 61.5508 108.727 75.5114C108.408 79.2709 108.565 82.1198 108.178 84.8086M108.178 84.8086C108.014 85.9469 107.753 87.0564 107.317 88.1943C105.668 92.4941 94.6739 102.703 92.1256 101.012C90.9725 100.247 91.1018 94.1558 92.1256 92.5537C95.0091 88.0412 98.4429 85.5514 101.74 84.4745C103.727 83.8258 106.001 83.8384 108.178 84.8086ZM108.178 84.8086C113.211 87.0515 117.72 94.4125 116.931 110.554C116.208 125.364 110.909 138.424 107.317 148.824C103.88 158.773 98.9485 162.153 93.8562 160.851C91.2051 160.173 86.242 158.308 85.6517 150.475M295.972 45.0524C295.972 52.9463 295.748 93.1637 295.971 101.054M277.137 47.5582C289.262 47.5582 302.16 43.9069 314.007 42.0523M322.131 41.0523V100.054M324.223 71.0531C330.487 61.7677 335.944 49.2901 346.197 42.0523M324.223 72.0541C324.223 75.5791 330.786 94.0428 332.769 95.816C340.035 102.316 342.825 99.1989 346.563 92.0537C348.547 88.2609 349.958 70.154 352.324 66.6095M234.656 46.6364C234.859 46.6104 235.059 46.5825 235.256 46.5525C235.473 46.5194 223.621 37.572 223.844 37.572C220.892 33.3677 212.422 24.6639 212.422 19.6858C212.422 17.5933 214.878 8.05143 214.878 8.05143C217.494 3.0513 243.343 2.85069 248.362 2.05127M234.656 46.6364C230.332 47.1902 225.781 46.3651 221.156 49.0727C216.152 52.0025 212.966 58.6323 212.048 60.8074C209.925 65.8408 208.57 71.1945 208.154 76.6097C207.698 82.5473 209.302 87.8094 211.885 93.1586C212.96 95.3846 214.457 97.6584 216.887 98.7307C221.219 100.641 231.316 101.241 236.94 95.6549C238.174 94.429 238.954 93.3623 239.668 92.1334C241.001 89.84 241.83 87.5193 242.14 84.912C242.465 82.1814 242.607 79.3589 242.607 76.6097C242.607 70.0737 240.553 54.9027 237.192 49.0727C236.737 48.2828 235.649 47.4638 234.656 46.6364ZM234.656 46.6364C233.825 45.9436 233.06 45.245 232.786 44.5524M251.068 49.8982C246.209 61.5762 250.759 95.9411 255 100.27C258.545 103.888 267.094 101.558 269.812 98.0538C273.881 92.8068 274.603 81.4694 275.019 69.4456C275.472 56.3209 269.759 49.0451 265.237 44.485C259.923 39.1265 253.346 44.4246 251.068 49.8982Z" stroke="#7B6FDC" stroke-width="3" stroke-linecap="round"></path> </svg> 