<?xml version="1.0" encoding="UTF-8"?> <svg xmlns="http://www.w3.org/2000/svg" width="228" height="23" viewBox="0 0 228 23" fill="none"> <g clip-path="url(#clip0_815_63)"> <path d="M4.64543 17.6037L0 5.86791H1.58923L5.62342 16.4546H5.25667L9.24197 5.86791H10.7823L6.13686 17.6037H4.64543Z" fill="#171818"></path> <path d="M21.0393 17.9705C19.8576 17.9705 18.8185 17.6893 17.922 17.127C17.0336 16.5565 16.3409 15.7985 15.8438 14.8532C15.3466 13.9078 15.098 12.8687 15.098 11.7358C15.098 10.8882 15.2407 10.0896 15.5259 9.33976C15.8112 8.58182 16.2146 7.91761 16.7362 7.34712C17.2659 6.76848 17.8934 6.31616 18.6188 5.99016C19.3441 5.66417 20.151 5.50117 21.0393 5.50117C22.2862 5.50117 23.3335 5.75789 24.1811 6.27133C25.0287 6.77663 25.7092 7.43269 26.2226 8.23953L26.0026 8.53293V0H27.3718V17.6037H26.0026V15.0121L26.2226 15.3299C25.701 16.0716 25.0409 16.6991 24.2422 17.2125C23.4435 17.7178 22.3759 17.9705 21.0393 17.9705ZM21.2838 16.6502C22.2047 16.6502 23.0197 16.4505 23.7288 16.0512C24.4378 15.6437 24.992 15.0732 25.3913 14.3397C25.7988 13.6062 26.0026 12.7383 26.0026 11.7358C26.0026 10.7334 25.7988 9.86543 25.3913 9.13194C24.992 8.3903 24.4378 7.81981 23.7288 7.42047C23.0197 7.02112 22.2047 6.82145 21.2838 6.82145C20.3629 6.82145 19.5479 7.02112 18.8388 7.42047C18.1298 7.81981 17.5715 8.3903 17.164 9.13194C16.7647 9.86543 16.565 10.7334 16.565 11.7358C16.565 12.7383 16.7647 13.6062 17.164 14.3397C17.5715 15.0732 18.1298 15.6437 18.8388 16.0512C19.5479 16.4505 20.3629 16.6502 21.2838 16.6502Z" fill="#171818"></path> <path d="M39.5465 17.9705C38.3648 17.9705 37.3053 17.6893 36.3681 17.127C35.439 16.5565 34.7055 15.7985 34.1676 14.8532C33.6297 13.9078 33.3608 12.8687 33.3608 11.7358C33.3608 10.8882 33.5156 10.0896 33.8253 9.33976C34.135 8.58182 34.567 7.91761 35.1212 7.34712C35.6835 6.76848 36.3396 6.31616 37.0893 5.99016C37.8391 5.66417 38.6582 5.50117 39.5465 5.50117C40.7283 5.50117 41.7837 5.78642 42.7128 6.35691C43.65 6.91925 44.3876 7.67311 44.9255 8.6185C45.4633 9.56389 45.7323 10.603 45.7323 11.7358C45.7323 12.5834 45.5774 13.3862 45.2678 14.1441C44.9581 14.8939 44.5261 15.5581 43.9719 16.1368C43.4177 16.7073 42.7617 17.1555 42.0037 17.4815C41.2539 17.8075 40.4349 17.9705 39.5465 17.9705ZM39.5465 16.6502C40.4675 16.6502 41.2825 16.4505 41.9915 16.0512C42.7005 15.6437 43.2547 15.0732 43.6541 14.3397C44.0616 13.6062 44.2653 12.7383 44.2653 11.7358C44.2653 10.7334 44.0616 9.86543 43.6541 9.13194C43.2547 8.3903 42.7005 7.81981 41.9915 7.42047C41.2825 7.02112 40.4675 6.82145 39.5465 6.82145C38.6256 6.82145 37.8106 7.02112 37.1016 7.42047C36.3925 7.81981 35.8343 8.3903 35.4268 9.13194C35.0274 9.86543 34.8278 10.7334 34.8278 11.7358C34.8278 12.7383 35.0274 13.6062 35.4268 14.3397C35.8343 15.0732 36.3925 15.6437 37.1016 16.0512C37.8106 16.4505 38.6256 16.6502 39.5465 16.6502Z" fill="#171818"></path> <path d="M54.6822 17.6037L50.0368 5.86791H51.626L55.6602 16.4546H55.2934L59.2787 5.86791H60.8191L56.1736 17.6037H54.6822Z" fill="#171818"></path> <path d="M71.3695 17.9705C70.147 17.9705 69.0671 17.7138 68.1299 17.2003C67.1927 16.6787 66.4592 15.9534 65.9294 15.0243C65.3997 14.0952 65.1348 13.0154 65.1348 11.7847C65.1348 10.8882 65.2856 10.057 65.5871 9.29086C65.8887 8.52478 66.3125 7.86056 66.8585 7.29822C67.4045 6.72773 68.0402 6.28763 68.7656 5.97794C69.4991 5.66009 70.2937 5.50117 71.1494 5.50117C72.0541 5.50117 72.8609 5.66417 73.5699 5.99016C74.2871 6.30801 74.8821 6.75625 75.3548 7.33489C75.8356 7.91354 76.1861 8.58998 76.4061 9.36421C76.6261 10.1385 76.6913 10.9779 76.6017 11.8825H66.6507C66.6018 12.8361 66.7689 13.6714 67.1519 14.3886C67.5349 15.0977 68.1014 15.6518 68.8512 16.0512C69.6009 16.4505 70.4974 16.6502 71.5406 16.6502C72.1682 16.6502 72.7916 16.5402 73.411 16.3201C74.0386 16.0919 74.5724 15.77 75.0125 15.3544L75.8071 16.5035C75.4077 16.8377 74.9595 17.1148 74.4623 17.3348C73.9652 17.5548 73.4518 17.7138 72.922 17.8116C72.4004 17.9175 71.8829 17.9705 71.3695 17.9705ZM66.6996 10.6111H75.1347C75.0858 9.41311 74.7272 8.48403 74.0589 7.82389C73.3906 7.1556 72.4208 6.82145 71.1494 6.82145C69.9188 6.82145 68.9041 7.1556 68.1054 7.82389C67.3067 8.48403 66.8381 9.41311 66.6996 10.6111Z" fill="#171818"></path> <path d="M82.6354 17.6037V5.86791H84.0046V7.62829C84.5425 6.87035 85.1659 6.32838 85.875 6.00239C86.584 5.66824 87.3053 5.50117 88.0388 5.50117C89.0738 5.50117 89.9377 5.71307 90.6304 6.13686C91.3232 6.56065 91.8407 7.09855 92.183 7.75054C92.5334 8.39438 92.7087 9.04637 92.7087 9.70651V17.6037H91.3395V10.1222C91.3395 9.14417 91.0176 8.34955 90.3737 7.73831C89.7299 7.12707 88.8701 6.82145 87.7943 6.82145C87.0934 6.82145 86.4536 6.98037 85.875 7.29822C85.3045 7.61606 84.8481 8.06431 84.5058 8.64295C84.1717 9.21344 84.0046 9.87766 84.0046 10.6356V17.6037H82.6354Z" fill="#171818"></path> <path d="M99.6804 17.6037V0H101.05V11.5647L106.82 5.86791H108.531L104.35 10.0977L109.411 17.6037H107.7L103.348 10.9779L101.05 13.2517V17.6037H99.6804Z" fill="#171818"></path> <path d="M119.996 17.9705C118.815 17.9705 117.755 17.6893 116.818 17.127C115.889 16.5565 115.155 15.7985 114.617 14.8532C114.08 13.9078 113.811 12.8687 113.811 11.7358C113.811 10.8882 113.965 10.0896 114.275 9.33976C114.585 8.58182 115.017 7.91761 115.571 7.34712C116.133 6.76848 116.789 6.31616 117.539 5.99016C118.289 5.66417 119.108 5.50117 119.996 5.50117C121.178 5.50117 122.234 5.78642 123.163 6.35691C124.1 6.91925 124.837 7.67311 125.375 8.6185C125.913 9.56389 126.182 10.603 126.182 11.7358C126.182 12.5834 126.027 13.3862 125.718 14.1441C125.408 14.8939 124.976 15.5581 124.422 16.1368C123.868 16.7073 123.212 17.1555 122.454 17.4815C121.704 17.8075 120.885 17.9705 119.996 17.9705ZM119.996 16.6502C120.917 16.6502 121.732 16.4505 122.441 16.0512C123.15 15.6437 123.705 15.0732 124.104 14.3397C124.511 13.6062 124.715 12.7383 124.715 11.7358C124.715 10.7334 124.511 9.86543 124.104 9.13194C123.705 8.3903 123.15 7.81981 122.441 7.42047C121.732 7.02112 120.917 6.82145 119.996 6.82145C119.075 6.82145 118.26 7.02112 117.551 7.42047C116.842 7.81981 116.284 8.3903 115.877 9.13194C115.477 9.86543 115.278 10.7334 115.278 11.7358C115.278 12.7383 115.477 13.6062 115.877 14.3397C116.284 15.0732 116.842 15.6437 117.551 16.0512C118.26 16.4505 119.075 16.6502 119.996 16.6502Z" fill="#171818"></path> <path d="M132.91 17.9705C132.535 17.9705 132.217 17.8482 131.956 17.6037C131.696 17.3674 131.565 17.0659 131.565 16.6991C131.565 16.4546 131.622 16.2386 131.736 16.0512C131.859 15.8556 132.022 15.7048 132.225 15.5989C132.429 15.4848 132.657 15.4277 132.91 15.4277C133.293 15.4277 133.611 15.55 133.864 15.7945C134.124 16.0308 134.255 16.3324 134.255 16.6991C134.255 16.9436 134.194 17.1637 134.071 17.3592C133.957 17.5467 133.798 17.6934 133.595 17.7993C133.391 17.9134 133.163 17.9705 132.91 17.9705Z" fill="#171818"></path> <path d="M145.581 17.9705C144.399 17.9705 143.36 17.6893 142.463 17.127C141.575 16.5565 140.882 15.7985 140.385 14.8532C139.888 13.9078 139.639 12.8687 139.639 11.7358C139.639 10.8882 139.782 10.0896 140.067 9.33976C140.352 8.58182 140.756 7.91761 141.277 7.34712C141.807 6.76848 142.435 6.31616 143.16 5.99016C143.885 5.66417 144.692 5.50117 145.581 5.50117C146.828 5.50117 147.875 5.75789 148.722 6.27133C149.57 6.77663 150.251 7.43269 150.764 8.23953L150.544 8.53293V0H151.913V17.6037H150.544V15.0121L150.764 15.3299C150.242 16.0716 149.582 16.6991 148.784 17.2125C147.985 17.7178 146.917 17.9705 145.581 17.9705ZM145.825 16.6502C146.746 16.6502 147.561 16.4505 148.27 16.0512C148.979 15.6437 149.533 15.0732 149.933 14.3397C150.34 13.6062 150.544 12.7383 150.544 11.7358C150.544 10.7334 150.34 9.86543 149.933 9.13194C149.533 8.3903 148.979 7.81981 148.27 7.42047C147.561 7.02112 146.746 6.82145 145.825 6.82145C144.904 6.82145 144.089 7.02112 143.38 7.42047C142.671 7.81981 142.113 8.3903 141.705 9.13194C141.306 9.86543 141.106 10.7334 141.106 11.7358C141.106 12.7383 141.306 13.6062 141.705 14.3397C142.113 15.0732 142.671 15.6437 143.38 16.0512C144.089 16.4505 144.904 16.6502 145.825 16.6502Z" fill="#171818"></path> <path d="M164.137 17.9705C162.914 17.9705 161.834 17.7138 160.897 17.2003C159.96 16.6787 159.226 15.9534 158.697 15.0243C158.167 14.0952 157.902 13.0154 157.902 11.7847C157.902 10.8882 158.053 10.057 158.354 9.29086C158.656 8.52478 159.08 7.86056 159.626 7.29822C160.172 6.72773 160.808 6.28763 161.533 5.97794C162.266 5.66009 163.061 5.50117 163.917 5.50117C164.821 5.50117 165.628 5.66417 166.337 5.99016C167.054 6.30801 167.649 6.75625 168.122 7.33489C168.603 7.91354 168.953 8.58998 169.173 9.36421C169.393 10.1385 169.459 10.9779 169.369 11.8825H159.418C159.369 12.8361 159.536 13.6714 159.919 14.3886C160.302 15.0977 160.869 15.6518 161.618 16.0512C162.368 16.4505 163.265 16.6502 164.308 16.6502C164.935 16.6502 165.559 16.5402 166.178 16.3201C166.806 16.0919 167.34 15.77 167.78 15.3544L168.574 16.5035C168.175 16.8377 167.727 17.1148 167.23 17.3348C166.732 17.5548 166.219 17.7138 165.689 17.8116C165.168 17.9175 164.65 17.9705 164.137 17.9705ZM159.467 10.6111H167.902C167.853 9.41311 167.495 8.48403 166.826 7.82389C166.158 7.1556 165.188 6.82145 163.917 6.82145C162.686 6.82145 161.671 7.1556 160.873 7.82389C160.074 8.48403 159.605 9.41311 159.467 10.6111Z" fill="#171818"></path> <path d="M178.875 17.9705C178.035 17.9705 177.22 17.8319 176.43 17.5548C175.647 17.2696 175.012 16.9029 174.523 16.4546L175.28 15.281C175.737 15.7293 176.283 16.0797 176.919 16.3324C177.554 16.5769 178.214 16.6991 178.899 16.6991C179.844 16.6991 180.59 16.5117 181.136 16.1368C181.682 15.7619 181.955 15.2403 181.955 14.572C181.955 13.9363 181.723 13.4636 181.258 13.1539C180.802 12.8361 179.967 12.5182 178.752 12.2004C177.383 11.8418 176.397 11.4058 175.794 10.8923C175.191 10.3789 174.889 9.66576 174.889 8.75297C174.889 8.10913 175.069 7.53457 175.427 7.02927C175.786 6.51583 176.279 6.11241 176.906 5.81902C177.534 5.52562 178.255 5.37892 179.07 5.37892C179.877 5.37892 180.627 5.50117 181.32 5.74567C182.02 5.98201 182.632 6.33246 183.153 6.797L182.444 7.99503C182.183 7.71794 181.87 7.48159 181.503 7.28599C181.144 7.08225 180.753 6.9274 180.329 6.82145C179.906 6.70735 179.469 6.6503 179.021 6.6503C178.206 6.6503 177.538 6.8296 177.016 7.1882C176.495 7.54679 176.234 8.04393 176.234 8.67962C176.234 9.33976 176.495 9.82468 177.016 10.1344C177.538 10.4441 178.353 10.7334 179.461 11.0023C180.822 11.3283 181.804 11.7562 182.408 12.2859C183.019 12.8157 183.324 13.5451 183.324 14.4742C183.324 15.1832 183.141 15.7985 182.774 16.3201C182.408 16.8417 181.89 17.2492 181.222 17.5426C180.553 17.8279 179.771 17.9705 178.875 17.9705Z" fill="#171818"></path> <path d="M189.726 17.6037V5.86791H191.095V17.6037H189.726ZM190.41 3.3985C190.093 3.3985 189.82 3.28848 189.591 3.06843C189.371 2.84023 189.261 2.56721 189.261 2.24937C189.261 1.93152 189.371 1.66258 189.591 1.44253C189.82 1.21433 190.093 1.10023 190.41 1.10023C190.728 1.10023 190.997 1.21433 191.217 1.44253C191.445 1.66258 191.56 1.93152 191.56 2.24937C191.56 2.56721 191.445 2.84023 191.217 3.06843C190.997 3.28848 190.728 3.3985 190.41 3.3985Z" fill="#171818"></path> <path d="M203.212 23.1049C202.503 23.1049 201.761 23.0316 200.987 22.8849C200.221 22.7382 199.471 22.4937 198.738 22.1514L199.227 20.8555C199.903 21.1734 200.584 21.4057 201.268 21.5524C201.961 21.7072 202.617 21.7846 203.236 21.7846C204.769 21.7846 205.942 21.3853 206.757 20.5866C207.572 19.7961 207.98 18.7773 207.98 17.5304V14.9876L208.2 15.281C207.702 16.0471 207.059 16.6869 206.268 17.2003C205.486 17.7138 204.483 17.9705 203.261 17.9705C202.03 17.9705 200.95 17.6893 200.021 17.127C199.092 16.5565 198.367 15.7985 197.845 14.8532C197.332 13.9078 197.075 12.8687 197.075 11.7358C197.075 10.8882 197.222 10.0896 197.515 9.33976C197.817 8.58182 198.24 7.91761 198.786 7.34712C199.333 6.76848 199.985 6.31616 200.742 5.99016C201.5 5.66417 202.34 5.50117 203.261 5.50117C204.483 5.50117 205.486 5.75789 206.268 6.27133C207.059 6.77663 207.702 7.41639 208.2 8.19063L207.98 8.48403V5.86791H209.349V17.017C209.349 18.9077 208.839 20.3951 207.821 21.479C206.802 22.5629 205.266 23.1049 203.212 23.1049ZM203.261 16.6502C204.182 16.6502 204.997 16.4505 205.706 16.0512C206.415 15.6437 206.969 15.0732 207.368 14.3397C207.776 13.6062 207.98 12.7383 207.98 11.7358C207.98 10.7334 207.776 9.86543 207.368 9.13194C206.969 8.3903 206.415 7.81981 205.706 7.42047C204.997 7.02112 204.182 6.82145 203.261 6.82145C202.34 6.82145 201.525 7.02112 200.816 7.42047C200.107 7.81981 199.549 8.3903 199.141 9.13194C198.742 9.86543 198.542 10.7334 198.542 11.7358C198.542 12.7383 198.742 13.6062 199.141 14.3397C199.549 15.0732 200.107 15.6437 200.816 16.0512C201.525 16.4505 202.34 16.6502 203.261 16.6502Z" fill="#171818"></path> <path d="M216.438 17.6037V5.86791H217.807V7.62829C218.345 6.87035 218.969 6.32838 219.678 6.00239C220.387 5.66824 221.108 5.50117 221.841 5.50117C222.876 5.50117 223.74 5.71307 224.433 6.13686C225.126 6.56065 225.643 7.09855 225.986 7.75054C226.336 8.39438 226.511 9.04637 226.511 9.70651V17.6037H225.142V10.1222C225.142 9.14417 224.82 8.34955 224.176 7.73831C223.532 7.12707 222.673 6.82145 221.597 6.82145C220.896 6.82145 220.256 6.98037 219.678 7.29822C219.107 7.61606 218.651 8.06431 218.308 8.64295C217.974 9.21344 217.807 9.87766 217.807 10.6356V17.6037H216.438Z" fill="#171818"></path> </g> <defs> <clipPath id="clip0_815_63"> <rect width="228" height="23" fill="white"></rect> </clipPath> </defs> </svg> 