<?xml version="1.0" encoding="UTF-8"?> <svg xmlns="http://www.w3.org/2000/svg" width="29" height="22" viewBox="0 0 29 22" fill="none"> <path d="M18.0139 4.40239C18.4783 3.98443 18.7126 3.57203 19.0831 3.02604C19.6808 2.14517 20.5795 1.70064 21.5571 1.33687C23.0637 0.776279 26.2911 0.657969 26.1867 3.06016C26.1453 4.01309 25.5957 5.38776 25.0322 6.14275C24.4492 6.92362 23.5606 7.28087 22.8311 7.88879C22.3712 8.27207 21.909 8.50598 21.3581 8.74759C21.0147 8.89821 19.9612 9.17665 20.3343 9.21397C21.2829 9.30883 22.242 8.92959 23.1837 8.92959C24.4507 8.92959 25.8565 9.35885 26.457 10.43C26.8664 11.1602 26.891 12.1634 27 13.0245C27.1619 14.3035 27.651 17.1909 26.8041 18.2394C25.675 19.6373 24.8089 20.3309 22.9506 20.8618C21.5694 21.2564 19.7442 20.6798 18.321 20.6798M6.51335 1.6166C5.64565 1.79014 4.37225 2.70732 3.87438 3.3797C3.03075 4.51904 2.44127 5.82265 1.89516 7.12203C1.41828 8.25666 1.0213 9.29117 1.00223 10.5402C0.973837 12.4001 1.2197 14.2376 1.54823 16.0627C1.76641 17.2748 2.06688 18.6955 3.05539 19.532C4.22995 20.5259 5.91127 21.0079 7.43471 20.8629C8.0305 20.8061 9.69182 20.5939 10.2698 20.3888C11.1087 19.7381 12.5606 17.7418 12.873 17.2651C13.5041 16.4235 13.3564 15.0336 13.452 13.9242C13.663 11.4772 13.1024 9.2456 12.2235 6.98553C11.9256 6.21935 11.8317 5.98495 11.4846 5.29079C10.768 4.2409 9.8517 3.29 9.01582 2.66308C8.20313 2.05356 7.57432 1.6166 6.51335 1.6166Z" stroke="white" stroke-width="2" stroke-linecap="round"></path> </svg> 