<?xml version="1.0" encoding="UTF-8"?> <svg xmlns="http://www.w3.org/2000/svg" width="417" height="156" viewBox="0 0 417 156" fill="none"> <path d="M129.578 48.9887C126.222 45.0389 113.7 45.4588 104.27 52.1162C91.7579 60.9495 88.6276 79.0229 98.2958 90.9078C104.034 97.961 108.841 102.226 115.219 98.718C123.171 94.3442 124.703 92.2377 127.773 85.7004C131.002 78.824 129.585 72.6374 130.248 65.4723C131.284 54.2795 132.3 44.372 130.658 33.1476C129.577 25.7607 127.144 15.6462 123.17 10.0081C115.272 -1.19984 100.914 6.95693 90.9229 11.3229M177.282 47.0437C173.926 43.0939 159.278 35.4274 147.76 48.2474C140.698 57.7756 132.118 75.1541 141.786 87.039C147.524 94.0922 157.158 100.411 162.923 96.773C167.51 93.8779 170.892 88.7114 173.893 82.2752C177.058 75.487 177.289 70.6924 177.952 63.5272C178.988 52.3344 180.004 42.427 178.362 31.2025C177.281 23.8157 174.848 13.7012 170.874 8.06306C162.975 -3.14488 148.618 5.01189 138.627 9.3779M402.761 32.0355C398.517 30.4045 389.581 31.623 386.019 35.096C377.17 43.7248 375.093 54.727 377.107 70.7214C378.123 78.79 394.736 94.3976 399.549 82.7295C410.703 66.5351 403.471 48.6035 402.695 29.5351M403.918 33.4902C404.389 45.0826 410.495 75.9633 414.574 86.6225M220.76 34.9507C220.883 37.9933 221.095 43.4163 221.364 50.3369M221.364 50.3369C221.522 54.3887 221.699 58.9538 221.889 63.8551M221.364 50.3369C220.628 54.6807 221.532 59.8671 221.889 63.8551M221.364 50.3369C221.736 48.1451 222.525 46.1678 224.013 44.6674C226.947 41.7101 232.638 39.4405 236.96 38.7958C251.568 39.6151 254.501 55.3669 252.491 68.1999C250.297 82.2084 232.226 98.104 224.821 91.6708M221.889 63.8551C223.127 95.7311 224.928 141.826 225.577 153.402C226.093 162.598 222.379 74.7468 222.004 65.5439C221.983 65.0118 221.942 64.4466 221.889 63.8551ZM344.349 30.9128C344.349 30.9128 346.338 66.7543 347.258 89.3672M347.689 60.814C353.658 51.2739 358.679 38.5764 368.772 30.9182M347.73 61.8146C347.873 65.338 355.273 83.5226 357.354 85.2131C364.979 91.4099 367.679 88.1792 371.176 80.8826C373.032 77.0095 374.283 68.7855 376.535 65.1448M188.328 64.3079C187.432 65.8309 199.461 63.854 200.215 63.8233C206.182 63.58 214.656 43.047 208.78 39.4441C204.068 36.5545 195.138 41.0312 192.002 44.6338C185.168 52.4848 186.419 77.1158 186.419 77.1158C186.419 77.1158 186 86.3845 188.952 91.1238C193.122 97.8187 203.156 94.5645 207.875 90.9078C212.372 87.4235 216.646 83.7064 221.041 79.8153M2.03972 47.2945C2.11517 47.8012 2.50557 48.0275 2.64559 48.5585C3.09734 50.2716 3.43323 53.446 3.66902 55.2529C4.17112 59.1004 4.64819 62.9531 5.10691 66.8091M5.10691 66.8091C6.19762 75.9774 7.18457 85.1642 8.15743 94.3442C8.50497 97.6236 8.75987 106.469 8.51678 103.179C7.9746 95.8393 7.7157 88.076 6.37881 80.8567C5.59571 76.6278 5.08315 71.7184 5.10691 66.8091ZM5.10691 66.8091C5.13539 60.9264 5.93397 55.044 7.95997 50.3333C9.42576 46.9252 12.3664 45.2404 15.4573 44.4337C19.82 43.2952 23.1534 48.645 25.282 52.3801C30.3228 61.2251 33.0496 73.5721 33.4796 84.1448C33.6153 87.4797 34.4952 96.7047 36.1949 99.4729C38.4897 103.21 42.7078 104.714 45.735 101.661C48.2758 99.0987 47.9108 88.133 48.5688 84.5839C50.1013 76.3175 52.3883 68.6197 53.2681 60.0838C53.3401 59.3844 53.5073 58.4337 53.7273 57.3711M53.7273 57.3711C54.0252 55.9322 54.42 54.2881 54.8066 52.7848M53.7273 57.3711C53.7629 55.836 54.26 54.3065 54.8066 52.7848M53.7273 57.3711C53.7237 57.527 53.7249 57.683 53.7312 57.839C54.0903 66.6683 54.2919 75.4496 55.7098 84.1756C56.9209 91.6292 58.2848 101.343 65.5753 103.659C73.3867 106.141 83.115 99.758 85.2269 91.2019C88.9736 76.0225 84.9552 53.8457 73.0656 44.3986C69.8925 41.8774 57.4731 43.3763 56.1672 48.3596M54.8066 52.7848C55.614 49.6455 56.386 47.1202 56.1672 48.3596M54.8066 52.7848C55.2883 51.4437 55.8083 50.1087 56.0847 48.7812M56.1672 48.3596C56.1477 48.4697 56.1205 48.6094 56.0847 48.7812M56.1672 48.3596C56.131 48.4974 56.1034 48.638 56.0847 48.7812M251.69 50.1658C253.503 47.0431 255.156 43.839 256.98 40.7204C258.174 38.6778 258.806 37.3226 261.085 36.5434C263.34 35.7721 266.586 34.7298 268.993 35.1293C272.688 35.7424 275.453 37.094 277.96 39.7352C283.003 45.0474 284.079 51.7006 284.011 58.5965C283.964 63.4229 284.118 68.9209 282.616 73.5896C281.979 75.5671 281.149 77.4187 280.42 79.3531C279.756 81.1156 279.494 82.7196 278.422 84.3305C276.568 87.1164 274.679 90.5634 271.884 92.6596C269.745 94.2632 267.256 94.1668 264.648 94.2731C261.459 94.4032 258.489 93.3736 255.761 91.9119M284.148 64.4919C284.566 64.4748 284.718 64.4806 284.972 64.1773C287.436 61.2349 289.667 58.1483 291.667 54.9016C292.782 53.0901 296.555 44.102 297.315 42.1398M297.614 35.0539C297.44 43.8138 296.226 54.1404 296.624 62.9092C296.911 69.2494 297.757 75.5481 298.015 81.8956L297.856 93.2069C297.741 90.3644 299.274 82.2694 299.589 79.4537C300.048 75.3613 300.869 71.2767 301.682 67.2309L301.73 66.9916C302.773 61.8028 303.291 56.2517 305.6 51.3897M305.6 51.3897C307.102 48.2244 308.459 44.7242 310.718 41.9621C313.705 38.3094 318.15 35.6633 322.966 34.7944C323.032 34.7824 323.247 34.7568 323.521 34.7256M305.6 51.3897C305.106 53.33 305.196 60.1028 305.256 62.1033C305.333 64.6611 306.874 69.192 306.874 69.192L311.871 79.342C311.871 79.342 314.86 83.9587 316.312 85.6227C322.22 93.2498 333.486 90.1555 342.997 89.0403M323.521 34.7256C324.342 34.6322 329.957 34.023 329.429 34.0445C328.876 34.067 324.064 34.6136 323.521 34.7256ZM323.521 34.7256C322.86 34.862 322.207 35.0443 321.565 35.2236L321.494 35.2435" stroke="#7B6FDC" stroke-width="3" stroke-linecap="round"></path> </svg> 