<?xml version="1.0" encoding="UTF-8"?> <svg xmlns="http://www.w3.org/2000/svg" width="291" height="123" viewBox="0 0 291 123" fill="none"> <path d="M186.404 17.8702C182.15 15.7947 172.704 16.0521 168.624 19.1255C158.488 26.7617 155.162 37.4814 155.574 53.6028C155.783 61.7355 171.458 79.0314 177.708 67.9418C191.045 53.0279 185.396 34.4226 186.598 15.3764M187.456 19.4404C186.725 31.0192 190.356 62.382 193.484 73.4181M282.414 22.9151C278.16 20.8396 268.715 21.097 264.635 24.1704C254.499 31.8066 251.172 42.5263 251.585 58.6477C251.793 66.7803 267.468 84.0763 273.718 72.9867C287.056 58.0728 281.406 39.4675 282.609 20.4213M283.466 24.4853C282.735 36.0641 285.845 67.4269 288.973 78.463M9.64853 2.17265C9.45665 5.21168 9.10557 10.6275 8.65601 17.5387M8.65601 17.5387C8.39281 21.585 8.09585 26.1439 7.77732 31.0385M8.65601 17.5387C7.43015 21.7798 7.82615 27.0344 7.77732 31.0385M8.65601 17.5387C9.27458 15.3986 10.3061 13.5166 12.0161 12.1834C15.3866 9.55564 21.5606 7.90653 26.1348 7.72692C41.2792 10.102 39.6537 31.8681 39.2269 38.628C38.7298 46.5017 14.9426 66.2027 7.90052 59.014M7.77732 31.0385C5.70575 62.871 2.72184 108.904 2.17772 120.486C1.74548 129.687 7.13912 41.9225 7.7195 32.7303C7.75305 32.1988 7.77008 31.6324 7.77732 31.0385ZM88.9926 8.19668L85.2734 67.1038M89.3212 38.2899C96.5502 29.4398 103.125 17.3486 114.457 10.8107M89.2581 39.2893C89.0359 42.8087 94.8335 61.6834 96.8243 63.5868C104.122 70.564 107.277 67.6394 111.693 60.7565C114.037 57.103 114.48 49.9509 117.213 46.5709M51.5376 32.8914C50.4435 34.3103 63.1939 33.6291 63.9833 33.679C70.23 34.0744 81.2311 14.5597 75.4851 10.349C70.8767 6.97208 61.0931 10.4702 57.4435 13.7181C49.4901 20.7959 48.1966 45.4248 48.1966 45.4248C48.1966 45.4248 46.7817 54.5977 49.3597 59.6261C53.0016 66.7296 63.8074 64.565 69.1135 61.4326C74.1693 58.4477 79.0176 55.2076 84.0105 51.8074M115.328 49.96C118.986 45.379 118.245 44.6114 118.994 53.1698C119.225 55.8095 120.894 67.6009 122.423 69.9561C124.149 72.6165 129.886 60.4654 130.362 58.9308C135.482 42.3944 142.216 29.8212 146.643 12.8477L145.27 70.3997M247.441 67.4844C247.441 67.4844 239.448 75.4877 237.949 72.9867C236.45 70.4856 235.753 63.2149 235.753 63.2149C235.753 63.2149 235.817 10.6444 234.31 15.3764C233.304 18.5331 232.766 21.0819 232.348 23.6299C231.255 30.2821 230.412 36.9246 228.991 43.5296C227.723 49.4182 224.363 74.8004 219.463 72.9867C214.563 71.1729 220.634 -2.22838 216.207 14.7451C211.78 31.7185 216.514 13.6456 209.471 42.1575C202.428 70.6694 206.416 76.5925 200.978 73.4181C198.692 72.084 196.981 67.9418 196.981 67.9418" stroke="#7B6FDC" stroke-width="3" stroke-linecap="round"></path> </svg> 