<?xml version="1.0" encoding="UTF-8"?> <svg xmlns="http://www.w3.org/2000/svg" width="276" height="148" viewBox="0 0 276 148" fill="none"> <path d="M46.4322 48.5753C42.4691 45.132 26.4446 39.5914 16.354 53.9156C10.3887 64.3514 4.22237 82.6963 15.4 93.202C22.2039 99.5968 32.9257 104.296 38.3459 99.8803C42.6591 96.3664 46.4368 84.951 46.4368 84.951C46.4368 84.951 49.5885 72.013 49.3137 64.8183C48.8845 53.5794 48.606 43.6171 45.4293 32.7231C43.3386 25.5537 39.4998 15.8708 34.679 10.8409C25.0958 0.84219 11.4762 10.9435 1.8233 16.6744M65.1202 36.4587C65.1212 44.1603 67.7991 54.3188 68.9547 59.8712C70.9516 69.4662 73.8658 79.5588 78.1482 88.0954C82.8124 97.3928 92.8059 91.6511 95.823 84.9573C101.019 73.4283 98.2348 66.4112 98.0424 54.7067C97.9758 50.6546 97.6183 47.6235 97.1422 45.1428M97.1422 45.1428C97.0777 44.8069 97.0111 44.4811 96.9427 44.1643M97.1422 45.1428C97.075 44.8129 97.0085 44.4867 96.9427 44.1643M97.1422 45.1428C100.042 59.3821 104.162 80.3533 106.063 89.2973M96.9427 44.1643C96.0571 40.0613 94.8785 37.4537 94.3344 33.8047C93.271 26.6729 94.7026 33.191 96.9427 44.1643ZM196.521 15.08C197.521 22.1111 199.568 30.9234 200.724 36.4758C202.721 46.0709 205.635 56.1634 209.917 64.7C214.582 73.9974 224.575 68.2557 227.592 61.5619C232.789 50.0329 230.004 43.0158 229.812 31.3113C229.745 27.2592 229.388 24.2281 228.911 21.7474M228.911 21.7474C228.847 21.4115 228.78 21.0857 228.712 20.7689M228.911 21.7474C228.844 21.4175 228.778 21.0913 228.712 20.7689M228.911 21.7474C231.811 35.9867 235.931 56.9579 237.832 65.902M228.712 20.7689C227.826 16.6659 226.648 14.0583 226.104 10.4093C225.04 3.27746 226.472 9.79561 228.712 20.7689ZM118.567 38.7676C117.155 30.8096 120.576 27.3603 125.859 27.361C135.068 27.3621 136.256 44.8174 137.474 58.7852C137.802 62.5466 138.462 65.3239 138.532 68.0432M138.532 68.0432C138.562 69.1944 138.471 70.1877 138.234 71.5359C136.853 79.4052 127.719 88.1434 124.793 86.9453C123.47 86.4032 122.539 80.3796 123.315 78.6139C125.503 73.6408 128.613 70.5591 131.828 68.8941C133.765 67.8911 136.115 67.4866 138.532 68.0432ZM138.532 68.0432C144.119 69.3302 150.059 75.7542 152.066 91.7979C153.907 106.518 150.72 120.353 148.828 131.255C147.019 141.684 142.52 145.918 137.036 145.568C134.181 145.386 128.732 144.459 126.754 136.852M174.094 20.829C169.529 19.8087 160.539 22.2717 157.353 26.2142C149.438 36.0096 148.775 47.2059 152.968 62.7754C155.083 70.6296 174.177 83.7648 177.554 71.524C186.822 53.9065 177.027 37.1502 173.693 18.3601M175.472 22.1083C177.499 33.5315 187.865 63.2802 193.462 73.2718M239.855 5.08917C240.698 9.84408 242.991 23.4938 245.204 36.4685M245.204 36.4685C246.497 44.0455 247.761 51.3923 248.694 56.6029M245.204 36.4685C244.22 39.4079 246.921 49.6218 248.694 56.6029M245.204 36.4685C245.249 36.3361 245.3 36.2185 245.36 36.1166C247.901 31.7786 257.393 27.1362 260.112 23.5363C264.457 17.7842 264.982 12.0207 264.407 4.2861C263.693 -5.31909 266.537 16.2925 268.224 25.8007L274.018 58.4612M248.694 56.6029C249.828 62.9365 250.472 66.1139 250.078 62.7117C249.95 61.6095 249.394 59.3579 248.694 56.6029Z" stroke="#7B6FDC" stroke-width="3" stroke-linecap="round"></path> </svg> 