<?xml version="1.0" encoding="UTF-8"?> <svg xmlns="http://www.w3.org/2000/svg" width="28" height="22" viewBox="0 0 28 22" fill="none"> <path d="M17.9112 9.01534C18.6089 9.01534 19.0171 8.82155 19.5385 8.30025C20.1566 7.68208 20.8734 7.10486 21.4078 6.41397C22.1631 5.43762 22.604 4.21392 23.1421 3.10877C23.4537 2.46861 23.9923 0.437297 23.9923 1.14929C23.9923 1.89373 23.8475 2.55886 23.7389 3.29458C23.3408 5.99303 22.9848 8.66584 22.7198 11.3915C22.5127 13.5217 22.5087 15.6732 22.3932 17.8105C22.3526 18.5609 22.4064 19.3132 22.3707 20.0627C22.3468 20.5647 21.2803 20.6308 20.9743 20.6934M14.988 20.7722C15.6752 20.5056 17.4968 20.8827 18.1927 20.8735C20.8699 20.8382 23.5444 20.7722 26.2221 20.7722M6.45833 1.9207C5.59929 2.09251 4.3386 3.00054 3.8457 3.66621C3.01049 4.79418 2.42689 6.08478 1.88623 7.37119C1.41411 8.49451 1.02109 9.51868 1.00221 10.7552C0.974098 12.5966 1.21751 14.4157 1.54276 16.2226C1.75877 17.4226 2.05623 18.8292 3.03488 19.6573C4.19772 20.6413 5.86226 21.1185 7.3705 20.9749C7.96034 20.9187 9.60509 20.7087 10.1773 20.5056C11.0078 19.8613 12.4452 17.885 12.7545 17.413C13.3794 16.5799 13.2331 15.2038 13.3278 14.1055C13.5366 11.6829 12.9817 9.47357 12.1115 7.23605C11.8165 6.47752 11.7236 6.24546 11.38 5.55823C10.6706 4.51882 9.76337 3.5774 8.93583 2.95674C8.13125 2.35331 7.50872 1.9207 6.45833 1.9207Z" stroke="white" stroke-width="2" stroke-linecap="round"></path> </svg> 