<?xml version="1.0" encoding="UTF-8"?> <svg xmlns="http://www.w3.org/2000/svg" width="30" height="22" viewBox="0 0 30 22" fill="none"> <path d="M19.5124 1.50103C19.4547 3.52082 19.0976 5.64055 18.8277 7.64542C18.7727 8.05383 18.7154 8.52385 18.7746 8.93804C18.8537 9.49193 20.8126 9.36301 21.1768 9.36301C23.5226 9.2672 22.8797 9.36301 24.243 9.36301C24.7063 9.36301 26.1396 7.57759 26.4041 7.10601C27.5475 5.06793 27.5897 4.10015 28 1.84337C28.3557 -0.113155 27.2978 5.76016 27.0556 7.73396C26.8536 9.38006 26.8807 11.6408 26.4041 13.2294C26.0439 16.111 26.0439 18.3539 26.0439 20.9737M6.72173 1C5.82123 1.1801 4.49971 2.13195 3.98303 2.82974C3.10751 4.01214 2.49575 5.36502 1.92899 6.71351C1.43409 7.89104 1.02211 8.96464 1.00232 10.2608C0.972848 12.1911 1.228 14.098 1.56895 15.9921C1.79538 17.25 2.1072 18.7245 3.13308 19.5925C4.35203 20.624 6.09689 21.1243 7.67792 20.9737C8.29622 20.9148 10.0203 20.6946 10.6202 20.4817C11.4908 19.8064 12.9976 17.7347 13.3217 17.24C13.9768 16.3666 13.8234 14.9241 13.9227 13.7728C14.1416 11.2333 13.5599 8.91734 12.6477 6.57185C12.3385 5.77672 12.2411 5.53346 11.8809 4.81306C11.1372 3.72349 10.1863 2.73665 9.31879 2.08604C8.47538 1.45348 7.82281 1 6.72173 1Z" stroke="white" stroke-width="2" stroke-linecap="round"></path> </svg> 