<?xml version="1.0" encoding="UTF-8"?> <svg xmlns="http://www.w3.org/2000/svg" width="31" height="22" viewBox="0 0 31 22" fill="none"> <path d="M20.4082 3.71259C20.4014 3.77721 20.3664 3.94618 20.3218 4.14357M20.3218 4.14357C20.1968 4.69674 19.9962 5.47312 20.1275 4.80177C20.1696 4.58654 20.236 4.36556 20.3218 4.14357ZM20.3218 4.14357C20.6912 3.18821 21.4203 2.21436 22.1206 1.60161C23.6977 0.221634 25.0952 1.48915 26.3706 2.66833C27.7757 3.96734 28.1897 5.39893 28.1897 7.29452C28.1897 9.04461 27.9967 10.7744 26.9264 12.2014C26.181 13.1954 25.6353 14.3259 24.8716 15.3118C24.2364 16.1317 23.4136 17.2628 22.5331 18.2773M22.5331 18.2773C21.8043 19.117 21.0359 19.8768 20.3015 20.3143C19.2532 20.9389 18.4002 21.0967 17.4438 20.1403C16.2229 18.9193 18.5949 17.6136 19.6615 17.4847C20.6966 17.3596 21.4054 17.7531 22.289 18.1697C22.3696 18.2076 22.451 18.2434 22.5331 18.2773ZM22.5331 18.2773C23.319 18.6029 24.1626 18.7713 24.8716 19.2869C26.1274 20.2002 27.9092 20.7432 29.4498 21M6.44247 1.68524C5.58593 1.85655 4.3289 2.76194 3.83743 3.42568C3.00465 4.55037 2.42275 5.83722 1.88365 7.11989C1.41291 8.23995 1.02103 9.26115 1.0022 10.4941C0.974173 12.3301 1.21688 14.144 1.54118 15.9456C1.75656 17.1421 2.05316 18.5446 3.02897 19.3703C4.18843 20.3514 5.84813 20.8273 7.35199 20.6841C7.94012 20.6281 9.58009 20.4186 10.1507 20.2161C10.9787 19.5737 12.412 17.6032 12.7203 17.1326C13.3434 16.3018 13.1975 14.9298 13.2919 13.8346C13.5002 11.4191 12.9469 9.21617 12.0792 6.98515C11.7851 6.22882 11.6925 5.99744 11.3499 5.3122C10.6425 4.27581 9.73791 3.33713 8.91277 2.71827C8.11053 2.11659 7.48981 1.68524 6.44247 1.68524Z" stroke="white" stroke-width="2" stroke-linecap="round"></path> </svg> 