<?xml version="1.0" encoding="UTF-8"?> <svg xmlns="http://www.w3.org/2000/svg" width="132" height="229" viewBox="0 0 132 229" fill="none"> <path d="M17.3717 53.0307C24.0368 34.491 45.7967 2.01742 68.6946 1.72099C101.252 1.29952 132.41 29.9896 130.16 63.4647C129.049 79.9784 122.665 99.1617 108.249 108.706C98.2068 115.354 84.7969 116.406 73.6493 120.369C54.4108 127.21 40.0648 141.073 30.2584 158.975C28.8796 161.491 22.0247 180.303 22.0247 180.303M5.26478 191.447C5.25317 191.984 5.23941 192.518 5.22409 193.051M5.22409 193.051C4.8856 204.822 3.78312 215.729 8.20576 226.79C9.26548 229.44 12.2372 220.336 12.7232 219.031C14.4618 214.363 14.5407 211.739 13.0125 207.096C11.3142 201.936 11.0876 195.524 7.74425 191.17C7.02878 190.238 6.11053 191.302 5.22409 193.051ZM5.22409 193.051C3.82052 195.82 2.49675 200.307 2.18413 201.308" stroke="#7B6FDC" stroke-width="3" stroke-linecap="round"></path> </svg> 