<?xml version="1.0" encoding="UTF-8"?> <svg xmlns="http://www.w3.org/2000/svg" width="111" height="267" viewBox="0 0 111 267" fill="none"> <path d="M2.4373 44.4408L11.3039 36.3414C17.5095 28.6203 24.0555 20.3017 32.1108 14.4187C39.354 9.1288 53.7084 3.14259 62.7666 2.00781C94.7955 -2.0046 114.454 37.1624 107.549 64.9471C104.215 78.3616 84.3874 91.7611 72.4108 97.3693C61.1628 102.636 50.0148 106.59 41.5232 116.132C27.0001 132.453 24.7962 161.657 23.1997 182.814L23.1861 182.994M27.4632 226.962C27.2485 226.222 26.8429 225.821 26.3359 225.653M26.3359 225.653C24.8283 225.156 22.4231 226.73 21.4661 227.667C15.2603 233.743 12.2686 243.705 10.8779 252.015C10.0259 257.107 12.3265 268.244 20.262 263.312C28.7787 258.019 33.4285 249.936 31.5145 240.006C30.8992 236.814 28.8788 229.989 26.3359 225.653ZM26.3359 225.653C25.4018 224.06 24.3972 222.803 23.3658 222.185" stroke="#7B6FDC" stroke-width="3" stroke-linecap="round"></path> </svg> 