<?xml version="1.0" encoding="UTF-8"?> <svg xmlns="http://www.w3.org/2000/svg" width="61" height="44" viewBox="0 0 61 44" fill="none"> <path d="M40.8164 7.42518C40.8028 7.55441 40.7329 7.89235 40.6437 8.28714M40.6437 8.28714C40.3937 9.39347 39.9923 10.9462 40.255 9.60353C40.3392 9.17308 40.472 8.73111 40.6437 8.28714ZM40.6437 8.28714C41.3824 6.37642 42.8406 4.42871 44.2412 3.20321C47.3954 0.443268 50.1904 2.97831 52.7412 5.33665C55.5513 7.93469 56.3793 10.7979 56.3793 14.589C56.3793 18.0892 55.9935 21.5487 53.8529 24.4029C52.3619 26.3908 51.2707 28.6517 49.7432 30.6235C48.4728 32.2635 46.8273 34.5257 45.0662 36.5547M45.0662 36.5547C43.6086 38.234 42.0718 39.7536 40.603 40.6286C38.5063 41.8777 36.8005 42.1933 34.8877 40.2806C32.4457 37.8387 37.1898 35.2273 39.323 34.9694C41.3931 34.7192 42.8109 35.5063 44.578 36.3393C44.7392 36.4153 44.902 36.4867 45.0662 36.5547ZM45.0662 36.5547C46.6379 37.2057 48.3251 37.5425 49.7431 38.5738C52.2548 40.4005 55.8185 41.4865 58.8996 42M12.8849 3.37048C11.1719 3.7131 8.65781 5.52388 7.67487 6.85135C6.0093 9.10074 4.84549 11.6744 3.7673 14.2398C2.82581 16.4799 2.04205 18.5223 2.00441 20.9882C1.94835 24.6603 2.43375 28.2879 3.08236 31.8912C3.51312 34.2842 4.10633 37.0893 6.05794 38.7407C8.37686 40.7028 11.6963 41.6546 14.704 41.3682C15.8802 41.2561 19.1602 40.8372 20.3014 40.4323C21.9575 39.1475 24.824 35.2063 25.4407 34.2651C26.6868 32.6036 26.3951 29.8595 26.5839 27.6692C27.0004 22.8382 25.8937 18.4323 24.1585 13.9703C23.5702 12.4576 23.3849 11.9949 22.6997 10.6244C21.2849 8.55162 19.4758 6.67425 17.8255 5.43654C16.2211 4.23318 14.9796 3.37048 12.8849 3.37048Z" stroke="#B9B3AA" stroke-width="3" stroke-linecap="round"></path> </svg> 