<?xml version="1.0" encoding="UTF-8"?> <svg xmlns="http://www.w3.org/2000/svg" width="57" height="44" viewBox="0 0 57 44" fill="none"> <path d="M36.0277 8.80479C36.9565 7.96885 37.4252 7.14406 38.1662 6.05207C39.3617 4.29035 41.159 3.40127 43.1143 2.67374C46.1274 1.55256 52.5823 1.31594 52.3734 6.12032C52.2905 8.02619 51.1915 10.7755 50.0643 12.2855C48.8985 13.8472 47.1212 14.5617 45.6622 15.7776C44.7423 16.5441 43.8179 17.012 42.7161 17.4952C42.0293 17.7964 39.9224 18.3533 40.6687 18.4279C42.5658 18.6177 44.4841 17.8592 46.3675 17.8592C48.9013 17.8592 51.713 18.7177 52.9141 20.8601C53.7328 22.3205 53.782 24.3268 54 26.0491C54.3238 28.6069 55.3019 34.3818 53.6082 36.4787C51.3501 39.2746 49.6178 40.6617 45.9011 41.7236C43.1388 42.5128 39.4884 41.3596 36.642 41.3596M13.0267 3.23319C11.2913 3.58027 8.74451 5.41464 7.74877 6.7594C6.06151 9.03807 4.88255 11.6453 3.79032 14.2441C2.83657 16.5133 2.0426 18.5823 2.00446 21.0803C1.94767 24.8002 2.4394 28.4751 3.09646 32.1253C3.53283 34.5495 4.13376 37.3911 6.11079 39.064C8.45991 41.0517 11.8225 42.0159 14.8694 41.7257C16.061 41.6122 19.3836 41.1879 20.5397 40.7777C22.2174 39.4761 25.1212 35.4837 25.7459 34.5302C27.0083 32.847 26.7127 30.0672 26.904 27.8484C27.3259 22.9544 26.2049 18.4912 24.4471 13.9711C23.8511 12.4387 23.6634 11.9699 22.9693 10.5816C21.5361 8.4818 19.7034 6.57999 18.0316 5.32616C16.4063 4.10713 15.1486 3.23319 13.0267 3.23319Z" stroke="#B9B3AA" stroke-width="3" stroke-linecap="round"></path> </svg> 