<?xml version="1.0" encoding="UTF-8"?> <svg xmlns="http://www.w3.org/2000/svg" width="54" height="44" viewBox="0 0 54 44" fill="none"> <path d="M35.5246 18.0307C36.9078 18.0307 37.717 17.6431 38.7505 16.6005C39.9759 15.3642 41.3968 14.2097 42.4563 12.8279C43.9536 10.8752 44.8277 8.42784 45.8943 6.21754C46.5121 4.93721 47.5798 0.874594 47.5798 2.29858C47.5798 3.78747 47.2927 5.11773 47.0775 6.58916C46.2882 11.9861 45.5824 17.3317 45.0571 22.783C44.6466 27.0434 44.6387 31.3463 44.4097 35.6209C44.3293 37.1218 44.4358 38.6264 44.3651 40.1254C44.3177 41.1294 42.2035 41.2615 41.5968 41.3867M29.7296 41.5444C31.092 41.0112 34.7032 41.7655 36.0827 41.7471C41.3899 41.6763 46.6919 41.5444 52 41.5444M12.8206 3.8414C11.1176 4.18502 8.61842 6.00107 7.6413 7.33242C5.98558 9.58835 4.82866 12.1696 3.75685 14.7424C2.82093 16.989 2.04181 19.0374 2.00438 21.5105C1.94865 25.1932 2.43119 28.8315 3.07596 32.4452C3.50417 34.8452 4.09387 37.6584 6.03394 39.3146C8.33914 41.2825 11.6389 42.2371 14.6288 41.9498C15.7981 41.8374 19.0587 41.4173 20.1931 41.0112C21.8394 39.7226 24.689 35.77 25.302 34.8261C26.5408 33.1597 26.2507 30.4076 26.4384 28.2109C26.8524 23.3658 25.7524 18.9471 24.0274 14.4721C23.4426 12.955 23.2584 12.4909 22.5772 11.1165C21.1709 9.03763 19.3724 7.1548 17.7319 5.91349C16.1369 4.70661 14.9028 3.8414 12.8206 3.8414Z" stroke="#B9B3AA" stroke-width="3" stroke-linecap="round"></path> </svg> 