<?xml version="1.0" encoding="UTF-8"?> <svg xmlns="http://www.w3.org/2000/svg" width="68" height="44" viewBox="0 0 68 44" fill="none"> <path d="M38 40.7733C42.171 43.4959 47.6897 41.1603 51.4167 38.8586C55.0282 36.6281 58.1907 32.6532 58.4167 28.9803C58.5943 26.0925 55.3369 22.8127 52.8889 20.9188C50.2103 18.8466 47.2973 18.4231 44.0278 19.82C42.5368 20.4571 41.3364 21.4699 40.3194 22.5181C40.3194 22.5181 39.2951 23.5718 39.2917 23.5625C39.0455 22.8876 40.2543 21.3132 40.5556 20.7556C41.5288 18.9546 42.5126 17.1559 43.5 15.3596C45.4424 11.8259 46.099 7.51457 49 4.74151C49.5523 4.21357 50.5187 4.32279 51.125 4.20847C53.2577 3.8063 57.5 3.13143 57.5 3.13143C57.5 3.13143 63.2407 2.54034 66 2M13.4435 2C11.6425 2.3602 8.99942 4.26389 7.96605 5.65948C6.21502 8.02428 4.9915 10.73 3.85799 13.427C2.86819 15.7821 2.04421 17.9293 2.00463 20.5217C1.9457 24.3822 2.45601 28.196 3.1379 31.9841C3.59076 34.5 4.21441 37.4489 6.26616 39.185C8.70407 41.2479 12.1938 42.2485 15.3558 41.9474C16.5924 41.8296 20.0407 41.3892 21.2404 40.9635C22.9815 39.6127 25.9951 35.4694 26.6434 34.4799C27.9535 32.7331 27.6468 29.8482 27.8453 27.5455C28.2831 22.4666 27.1197 17.8347 25.2955 13.1437C24.677 11.5534 24.4822 11.0669 23.7618 9.62612C22.2745 7.44699 20.3725 5.47329 18.6376 4.17208C16.9508 2.90696 15.6456 2 13.4435 2Z" stroke="#B9B3AA" stroke-width="3" stroke-linecap="round"></path> </svg> 