<?xml version="1.0" encoding="UTF-8"?> <svg xmlns="http://www.w3.org/2000/svg" width="58" height="44" viewBox="0 0 58 44" fill="none"> <path d="M39.0247 3.00207C38.9093 7.04165 38.1952 11.2811 37.6554 15.2908C37.5454 16.1076 37.4308 17.0477 37.5491 17.8761C37.7074 18.9839 41.6253 18.726 42.3537 18.726C47.0451 18.5344 45.7594 18.726 48.4859 18.726C49.4126 18.726 52.2792 15.1552 52.8083 14.212C55.0949 10.1359 55.1794 8.2003 56 3.68674C56.7115 -0.22631 54.5956 11.5203 54.1112 15.4679C53.7073 18.7601 53.7614 23.2817 52.8083 26.4588C52.0879 32.222 52.0879 36.7077 52.0879 41.9474M13.4435 2C11.6425 2.3602 8.99942 4.26389 7.96605 5.65948C6.21502 8.02428 4.9915 10.73 3.85799 13.427C2.86819 15.7821 2.04421 17.9293 2.00463 20.5217C1.9457 24.3822 2.45601 28.196 3.1379 31.9841C3.59076 34.5 4.21441 37.4489 6.26616 39.185C8.70407 41.2479 12.1938 42.2485 15.3558 41.9474C16.5924 41.8296 20.0407 41.3892 21.2404 40.9635C22.9815 39.6127 25.9951 35.4694 26.6434 34.4799C27.9535 32.7331 27.6468 29.8482 27.8453 27.5455C28.2831 22.4666 27.1197 17.8347 25.2955 13.1437C24.677 11.5534 24.4822 11.0669 23.7618 9.62612C22.2745 7.44699 20.3725 5.47329 18.6376 4.17208C16.9508 2.90696 15.6456 2 13.4435 2Z" stroke="#B9B3AA" stroke-width="3" stroke-linecap="round"></path> </svg> 