<?xml version="1.0" encoding="UTF-8"?> <svg xmlns="http://www.w3.org/2000/svg" width="523" height="317" viewBox="0 0 523 317" fill="none"> <path d="M83.4805 55.1946C78.5576 52.9393 67.9713 54.007 63.6087 58.167C52.7697 68.5027 49.7952 82.1504 51.4013 102.247C52.2115 112.385 71.0363 132.743 77.267 118.402C91.1838 98.7264 83.5222 75.9419 83.5222 52.0655M84.7732 57.072C84.7732 71.5874 90.4875 110.502 94.7815 124.035M270.302 55.1946C265.379 52.9393 254.793 54.007 250.43 58.167C239.591 68.5027 236.617 82.1504 238.223 102.247C239.033 112.385 257.858 132.743 264.088 118.402C278.005 98.7264 270.344 75.9419 270.344 52.0655M271.595 57.072C271.595 71.5874 277.309 110.502 281.603 124.035M2.06754 50.8138C2.06754 54.6236 2.05728 61.4136 2.04246 70.0786M2.04246 70.0786C2.03378 75.1517 2.02354 80.8675 2.01288 87.0042M2.04246 70.0786C0.966811 75.4711 1.78387 82.0007 2.01288 87.0042M2.04246 70.0786C2.58523 67.3576 3.60993 64.9261 5.43527 63.1263C9.03313 59.5789 15.8478 57.0319 20.9705 56.4462C38.1417 58.215 37.8596 85.5211 37.8596 93.9953C37.8596 103.866 12.55 130.345 4.13425 121.925M2.01288 87.0042C1.94356 126.915 1.85655 184.628 2.06666 199.133C2.23357 210.655 2.06788 100.645 2.06788 89.1211C2.06788 88.4548 2.04685 87.7463 2.01288 87.0042ZM161.567 63.5791C153.164 65.8403 159.798 119.513 164.869 124.931C169.107 129.459 179.329 126.543 182.578 122.157C187.443 115.59 188.306 101.4 188.803 86.3509C189.346 69.924 182.514 60.8177 177.108 55.1102C170.755 48.4035 165.784 53.7248 160.168 61.8853M213.854 55.8204C213.854 65.7003 213.587 116.037 213.854 125.912M191.336 58.9566C205.833 58.9566 221.253 54.3866 235.418 52.0655M140.546 57.8028C140.788 57.7703 141.028 57.7354 141.263 57.6978C141.522 57.6565 127.352 46.4579 127.619 46.4579C124.09 41.1958 113.962 30.302 113.962 24.0715C113.962 21.4524 116.899 9.50982 116.899 9.50982C120.026 3.25164 150.931 3.00056 156.932 2M140.546 57.8028C135.376 58.496 128.675 58.1312 124.405 60.8522C121.844 62.4836 114.613 72.817 113.516 75.5393C110.977 81.8392 109.356 88.5398 108.859 95.3175C108.314 102.749 110.232 109.335 113.32 116.03C114.606 118.816 116.395 121.662 119.301 123.004C124.48 125.396 140.81 126.319 143.276 119.155C143.84 117.514 145.684 116.285 146.538 114.747C148.132 111.877 149.123 108.972 149.494 105.709C149.882 102.291 150.051 98.7585 150.051 95.3175C150.051 87.137 147.596 68.149 143.577 60.8522C143.033 59.8635 141.733 58.8385 140.546 57.8028ZM140.546 57.8028C139.552 56.9358 138.637 56.0613 138.309 55.1945M299.358 84.1538C298.23 86.0119 312.497 84.1538 313.387 84.1538C320.428 84.1538 331.396 58.9179 324.646 54.1145C319.233 50.2621 308.497 55.4032 304.63 59.7469C296.202 69.2129 298.507 85.6312 296.496 100.067C295.373 108.13 294.932 114.136 298.183 120.211C302.775 128.792 314.922 107.441 319.89 114.647C332.4 132.796 338.218 113.514 339.91 108.906C351.17 78.2413 349.058 76.4457 354.601 55.21C360.143 33.9743 351.912 121.765 358.047 124.035C364.181 126.304 369.019 98.59 370.605 91.2227C372.385 82.9591 373.44 74.6486 374.808 66.326C375.332 63.1381 376.862 56.6259 379.314 50.8138C379.578 50.188 381.571 94.7492 385.327 116.081C388.209 125.67 397.454 122.157 397.454 122.157" stroke="#B9B3AA" stroke-width="3" stroke-linecap="round"></path> <path d="M34.0228 246.623C29.0942 244.391 18.4957 245.448 14.1281 249.565C3.2766 259.796 0.298653 273.305 1.90663 293.198C2.71779 303.233 14.1281 320.339 34.0228 310.428M94.3402 252.809C94.3153 253.042 94.1875 253.653 94.0244 254.367M94.0244 254.367C93.5675 256.367 92.8339 259.175 93.314 256.747C93.468 255.969 93.7107 255.17 94.0244 254.367ZM94.0244 254.367C95.3747 250.913 98.04 247.391 100.6 245.175C106.365 240.185 111.474 244.769 116.136 249.033C121.273 253.73 122.786 258.907 122.786 265.761C122.786 272.089 122.081 278.344 118.168 283.505C115.443 287.099 113.448 291.187 110.657 294.752C108.335 297.717 105.327 301.807 102.108 305.475M102.108 305.475C99.4437 308.511 96.6348 311.259 93.9502 312.841C90.1178 315.099 86.9998 315.67 83.5036 312.212C79.0402 307.797 87.7115 303.075 91.6105 302.609C95.3942 302.157 97.9857 303.58 101.216 305.086C101.51 305.223 101.808 305.352 102.108 305.475ZM102.108 305.475C104.981 306.652 108.065 307.261 110.656 309.126C115.247 312.428 121.761 314.392 127.393 315.32M207.063 252.809C207.039 253.042 206.911 253.653 206.748 254.367M206.748 254.367C206.291 256.367 205.557 259.175 206.037 256.747C206.191 255.969 206.434 255.17 206.748 254.367ZM206.748 254.367C208.098 250.913 210.763 247.391 213.323 245.175C219.088 240.185 224.197 244.769 228.86 249.033C233.996 253.73 235.509 258.907 235.509 265.761C235.509 272.089 234.804 278.344 230.891 283.505C228.166 287.099 226.172 291.187 223.38 294.752C221.058 297.717 218.05 301.807 214.831 305.475M214.831 305.475C212.167 308.511 209.358 311.259 206.673 312.841C202.841 315.099 199.723 315.67 196.227 312.212C191.763 307.797 200.435 303.075 204.334 302.609C208.117 302.157 210.709 303.58 213.939 305.086C214.233 305.223 214.531 305.352 214.831 305.475ZM214.831 305.475C217.704 306.652 220.788 307.261 223.38 309.126C227.97 312.428 234.484 314.392 240.116 315.32M159.187 245.175C156.056 245.795 151.461 249.069 149.664 251.469C146.62 255.536 144.493 260.189 142.522 264.827C140.801 268.877 139.368 272.57 139.3 277.028C139.197 283.668 140.084 290.226 141.27 296.741C142.057 301.068 143.142 306.139 146.709 309.125C150.947 312.673 157.014 314.394 162.512 313.876C164.662 313.673 170.657 312.916 172.743 312.184C175.77 309.861 181.009 302.735 182.136 301.033C184.414 298.029 183.881 293.068 184.226 289.108C184.987 280.373 182.965 272.407 179.793 264.34C178.718 261.605 178.379 260.768 177.126 258.291C174.541 254.543 171.234 251.149 168.218 248.911C165.285 246.735 163.016 245.175 159.187 245.175ZM271.91 245.175C268.779 245.795 264.184 249.069 262.387 251.469C259.343 255.536 257.216 260.189 255.245 264.827C253.524 268.877 252.092 272.57 252.023 277.028C251.92 283.668 252.808 290.226 253.993 296.741C254.781 301.068 255.865 306.139 259.432 309.125C263.67 312.673 269.738 314.394 275.235 313.876C277.385 313.673 283.38 312.916 285.466 312.184C288.493 309.861 293.732 302.735 294.86 301.033C297.137 298.029 296.604 293.068 296.949 289.108C297.71 280.373 295.688 272.407 292.516 264.34C291.441 261.605 291.102 260.768 289.85 258.291C287.264 254.543 283.957 251.149 280.941 248.911C278.008 246.735 275.739 245.175 271.91 245.175Z" stroke="#B9B3AA" stroke-width="3" stroke-linecap="round"></path> <path d="M465.406 252.801C461.634 247.684 444.708 237.337 430.494 252.801C421.699 264.371 421.138 284.334 421.578 301.067C421.767 308.22 439.085 318.595 446.065 314.334C451.62 310.943 455.845 302.738 459.713 296.741C464.246 289.715 464.279 282.412 465.406 273.474C467.166 259.512 468.842 247.159 467.442 233.021C466.52 223.717 464.133 210.928 459.713 203.666C450.925 189.229 433.583 198.709 421.578 203.666M509.185 244.266C504.252 242.007 493.643 243.077 489.272 247.244C478.41 257.596 475.43 271.266 477.039 291.396C477.851 301.55 496.715 321.941 502.958 307.577C516.904 287.869 509.227 265.048 509.227 241.132M510.48 246.147C510.48 260.686 516.206 299.664 520.509 313.218M340.612 263.698C340.612 263.698 343.259 254.929 346.88 250.535C350.461 246.191 356.736 241.81 358.447 241.934C360.592 242.088 361.203 245.794 361.993 248.654C362.973 252.203 361.993 258.082 361.993 258.082L357.259 275.57C357.259 275.57 353.321 295.22 353.941 305.442C354.13 308.559 355.709 311.685 358.447 313.218C361.054 314.678 379.085 295.048 381.356 293.786M390.131 242.928C375.982 262.355 382.347 307.436 387.429 312.863C391.675 317.398 401.919 314.478 405.175 310.084C410.05 303.506 412.825 289.428 413.323 274.355C413.867 257.901 413.1 252.491 407.682 246.774C401.316 240.056 393.265 238.625 390.131 242.928Z" stroke="#B9B3AA" stroke-width="3" stroke-linecap="round"></path> </svg> 